<svg xmlns="http://www.w3.org/2000/svg" viewBox="0 0 64 64" fill="none">
  <rect width="64" height="64" rx="14" fill="#01696f"/>
  <path d="M32 10v10m0 0h10m-10 0H22m10 0v8M14 54v-8a5 5 0 0 1 5-5h4a5 5 0 0 1 5 5v8m0-8a5 5 0 0 1 5-5h4a5 5 0 0 1 5 5v8" stroke="#fff" stroke-width="2.4" stroke-linecap="round" stroke-linejoin="round"/>
  <rect x="10" y="20" width="8" height="7" rx="1.5" stroke="#fff" stroke-width="2"/>
  <rect x="46" y="20" width="8" height="7" rx="1.5" stroke="#fff" stroke-width="2"/>
  <rect x="28" y="30" width="8" height="7" rx="1.5" stroke="#fff" stroke-width="2"/>
</svg>
